#define battery_critical_width 7
#define battery_critical_height 5
static unsigned char battery_critical_bits[] = {
   0x40, 0x3e, 0x3e, 0x3e, 0x40 };
