#define battery_high_width 7
#define battery_high_height 5
static unsigned char battery_high_bits[] = {
   0x40, 0x3e, 0x22, 0x3e, 0x40 };
